<?xml version="1.0" encoding="UTF-8"?>
<svg width="387px" height="557px" viewBox="0 0 387 557" version="1.1" xmlns="http://www.w3.org/2000/svg" xmlns:xlink="http://www.w3.org/1999/xlink">
    <!-- Generator: Sketch 52.5 (67469) - http://www.bohemiancoding.com/sketch -->
    <title>Group 4</title>
    <desc>Created with Sketch.</desc>
    <g id="Page-1" stroke="none" stroke-width="1" fill="none" fill-rule="evenodd">
        <g id="secondary-branding" transform="translate(-319.000000, -234.000000)">
            <g id="Group-4" transform="translate(319.000000, 234.000000)">
                <circle id="Oval-Copy-18" fill="#40E0D0" cx="235" cy="514" r="42"></circle>
                <path d="M371.215912,18.1977587 C375.770731,25.0219523 380.705044,35.2580892 386.019,48.9064765 L386.019,311.636618 C385.259863,316.944324 384.121176,321.493718 382.602903,325.284937 C381.08463,329.076155 379.566379,332.488201 378.048106,335.521176 C372.73415,340.828882 366.281587,345.378276 358.690221,349.169495 L331.361442,355.993654 L121.840805,355.993654 L121.840805,523.185562 L108.176416,543.658041 C101.344187,548.207503 91.0959975,552.377781 77.4315398,556.169 L15.9417876,556.169 L2.27739823,548.207481 L0,495.888924 L2.27739823,439.020928 L15.9417876,432.196769 L33.0222743,432.196769 L45.5479646,428.784689 C53.13933,423.476983 56.9349558,417.79024 56.9349558,411.72429 L56.9349558,225.197264 L63.7671504,217.235744 L112.731212,217.235744 L121.840805,230.884063 L306.310062,233.158783 C311.624018,233.158783 314.470737,232.779667 314.850305,232.021423 C315.229874,231.26318 316.937905,226.713785 319.974451,218.373104 L319.974451,141.03263 L314.280956,133.07111 L304.032664,122.834871 L159.417876,122.834871 L149.169584,136.48319 L149.169584,144.44471 L143.476088,151.268869 L87.6798319,151.268869 L81.9863363,144.44471 L81.9863363,18.1977587 L92.2346283,3.41207975 L108.176416,0 L343.887133,0 C352.996771,0 362.106273,6.0658589 371.215912,18.1977587 Z" id="d" fill="#666666"></path>
            </g>
        </g>
    </g>
</svg>