<?xml version="1.0" standalone="no"?>
<!DOCTYPE svg PUBLIC "-//W3C//DTD SVG 20010904//EN"
 "http://www.w3.org/TR/2001/REC-SVG-20010904/DTD/svg10.dtd">
<svg version="1.0" xmlns="http://www.w3.org/2000/svg"
 width="800.000000pt" height="800.000000pt" viewBox="0 0 800.000000 800.000000"
 preserveAspectRatio="xMidYMid meet">
<metadata>
Created by potrace 1.11, written by Peter Selinger 2001-2013
</metadata>
<g transform="translate(0.000000,800.000000) scale(0.100000,-0.100000)"
fill="#000000" stroke="none">
<path d="M2709 6776 c-2 -2 -17 -6 -34 -9 -99 -16 -98 -15 -152 -93 l-53 -75
0 -633 0 -633 29 -33 28 -33 279 1 279 1 28 31 c20 23 27 41 27 71 0 34 9 54
51 110 l51 69 726 0 727 0 50 -53 c28 -28 63 -69 78 -89 l27 -37 0 -387 c0
-372 -1 -389 -22 -448 -12 -34 -26 -67 -32 -75 -8 -11 -102 -12 -546 -7 -1023
12 -1374 17 -1381 22 -4 2 -26 33 -50 68 l-43 64 -242 0 -242 0 -36 -38 -36
-39 0 -946 c0 -1027 3 -977 -56 -1041 -53 -58 -128 -82 -262 -85 -86 -1 -101
-5 -163 -36 l-69 -34 -1 -77 c-1 -42 -3 -111 -6 -152 -6 -105 -7 -539 0 -635
3 -44 5 -112 6 -152 l1 -72 69 -41 69 -41 310 -1 310 0 94 31 c169 56 193 73
275 192 l72 104 1 838 0 837 1045 0 1045 0 145 36 c126 32 154 43 220 86 41
27 85 63 98 81 25 33 59 114 76 182 7 27 11 473 11 1363 l0 1323 -36 86 c-81
197 -160 303 -274 371 l-45 27 -1221 3 c-671 1 -1222 0 -1225 -2z"/>
<path d="M3868 2036 c-176 -62 -278 -202 -283 -385 -7 -235 164 -418 398 -427
353 -14 562 383 352 668 -103 141 -302 202 -467 144z"/>
</g>
</svg>
