<?xml version="1.0" encoding="UTF-8"?>
<svg width="733px" height="97px" viewBox="0 0 733 97" version="1.1" xmlns="http://www.w3.org/2000/svg" xmlns:xlink="http://www.w3.org/1999/xlink">
    <!-- Generator: Sketch 52.5 (67469) - http://www.bohemiancoding.com/sketch -->
    <title>Group 4</title>
    <desc>Created with Sketch.</desc>
    <g id="Page-1" stroke="none" stroke-width="1" fill="none" fill-rule="evenodd">
        <g id="primary-branding" transform="translate(-146.000000, -464.000000)">
            <g id="Group-4" transform="translate(146.000000, 464.000000)">
                <g id="Group-2" fill="#666666">
                    <path d="M68.9898299,96.3333333 L38.4933432,96.3333333 C26.3850479,96.3333333 16.9425265,93.4000293 10.1654956,87.5333333 C3.38846464,81.6666373 -2.27373675e-13,73.1778333 -2.27373675e-13,62.0666667 C-2.27373675e-13,50.8666107 3.38846464,42.3333627 10.1654956,36.4666667 C16.9425265,30.5999707 26.3850479,27.6666667 38.4933432,27.6666667 L68.9898299,27.6666667 L68.9898299,1 L88.6431213,1 L88.6431213,96.3333333 L68.9898299,96.3333333 Z M68.9898299,81 L68.9898299,43 L38.4933432,43 C32.6199164,43 28.1245533,44.577762 25.0071191,47.7333333 C21.8896849,50.8889047 20.3309911,55.6666347 20.3309911,62.0666667 C20.3309911,68.3778093 21.8896849,73.1110953 25.0071191,76.2666667 C28.1245533,79.422238 32.6199164,81 38.4933432,81 L68.9898299,81 Z M103.552515,96.3333333 L103.552515,1 L123.205806,1 L123.205806,27.6666667 L164.409948,27.6666667 C172.361665,27.6666667 178.167234,29.5999807 181.826831,33.4666667 C185.486427,37.3333527 187.316198,42.4221907 187.316198,48.7333333 L187.316198,96.3333333 L167.662907,96.3333333 L167.662907,51 C167.662907,45.66664 164.952135,43 159.53051,43 L123.205806,43 L123.205806,96.3333333 L103.552515,96.3333333 Z M201.547892,96.3333333 L201.547892,27.6666667 L221.201183,27.6666667 L221.201183,96.3333333 L201.547892,96.3333333 Z M259.423447,96.3333333 L230.01128,27.6666667 L250.613351,27.6666667 L273.384061,80.8666667 L280.161058,80.8666667 L302.931768,27.6666667 L323.533839,27.6666667 L294.121672,96.3333333 L259.423447,96.3333333 Z M366.77108,97 C354.662785,97 345.220263,94.044474 338.443232,88.1333333 C331.666201,82.2221927 328.277737,73.5333907 328.277737,62.0666667 C328.277737,50.5110533 331.666201,41.7778073 338.443232,35.8666667 C345.220263,29.955526 354.662785,27 366.77108,27 L400.656065,27 C408.607781,27 414.684428,28.844426 418.886187,32.5333333 C423.087946,36.2222407 425.188794,41.4888547 425.188794,48.3333333 C425.188794,62.2889587 417.0113,69.2666667 400.656065,69.2666667 L349.421967,69.2666667 C351.319536,77.5333747 357.102516,81.6666667 366.77108,81.6666667 L421.664756,81.6666667 L421.664756,97 L366.77108,97 Z M366.77108,42.3333333 C357.463957,42.3333333 351.726157,46.1999613 349.557507,53.9333333 L399.707286,53.9333333 C401.514494,53.9333333 402.937649,53.4000053 403.976794,52.3333333 C405.015938,51.2666613 405.535503,49.8000093 405.535503,47.9333333 C405.535503,44.1999813 403.592783,42.3333333 399.707286,42.3333333 L366.77108,42.3333333 Z M437.387389,96.3333333 L437.387389,1 L457.04068,1 L457.04068,27.6666667 L498.244822,27.6666667 C506.196539,27.6666667 512.002108,29.5999807 515.661705,33.4666667 C519.321302,37.3333527 521.151072,42.4221907 521.151072,48.7333333 L521.151072,96.3333333 L501.497781,96.3333333 L501.497781,51 C501.497781,45.66664 498.787009,43 493.365385,43 L457.04068,43 L457.04068,96.3333333 L437.387389,96.3333333 Z M535.382766,96.3333333 L535.382766,27.6666667 L555.036058,27.6666667 L555.036058,96.3333333 L535.382766,96.3333333 Z M626.736686,96.3333333 C619.417493,96.3333333 613.815231,94.5111293 609.929734,90.8666667 C606.044236,87.222204 604.101516,82.022256 604.101516,75.2666667 C604.101516,68.5999667 606.044236,63.4444627 609.929734,59.8 C613.815231,56.1555373 619.417493,54.3333333 626.736686,54.3333333 L678.784024,54.3333333 L678.784024,51.1333333 C678.784024,45.711084 676.073252,43 670.651627,43 L613.182692,43 L613.182692,27.6666667 L675.802145,27.6666667 C684.024942,27.6666667 689.853102,29.5110927 693.286797,33.2 C696.720493,36.8889073 698.437315,42.0666333 698.437315,48.7333333 L698.437315,96.3333333 L626.736686,96.3333333 Z M630.260725,81 L678.784024,81 L678.784024,69.6666667 L630.260725,69.6666667 C628.543877,69.6666667 627.211081,70.1777727 626.262297,71.2 C625.313512,72.2222273 624.839127,73.5777693 624.839127,75.2666667 C624.839127,76.955564 625.313512,78.333328 626.262297,79.4 C627.211081,80.466672 628.543877,81 630.260725,81 Z M713.346709,96.3333333 L713.346709,27.6666667 L733,27.6666667 L733,96.3333333 L713.346709,96.3333333 Z" id="dhivehi.ai" transform="translate(366.500000, 49.000000) rotate(-360.000000) translate(-366.500000, -49.000000) "></path>
                    <ellipse id="Oval-Copy-19" fill-rule="nonzero" cx="722.323462" cy="9.58024691" rx="9.67653759" ry="9.58024691"></ellipse>
                    <ellipse id="Oval-Copy-5" fill-rule="nonzero" cx="544.517084" cy="9.58024691" rx="9.67653759" ry="9.58024691"></ellipse>
                    <ellipse id="Oval-Copy-14" fill-rule="nonzero" cx="210.676538" cy="9.58024691" rx="9.67653759" ry="9.58024691"></ellipse>
                </g>
                <ellipse id="Oval-Copy-18" fill="#40E0D0" cx="580.842806" cy="86.7251852" rx="10.2813212" ry="10.1790123"></ellipse>
            </g>
        </g>
    </g>
</svg>